PathFileType	4	(X/Y/Z)	Patient4_TMGait_0pt8_01_left_15.trc.trc
DataRate	CameraRate	NumFrames	NumMarkers	Units	OrigDataRate	OrigDataStartFrame	OrigNumFrames
89.743589743590	89.743589743590	4	33	mm	89.743589743590	124	       141
Frame#	Time	Sacral			L.Shoulder			Chest			R.Shoulder			Neck			R.ASIS			L.ASIS			R.Thigh.Superior			R.Thigh.Lateral			R.Thigh.Inferior			R.Patella			L.Thigh.Superior			L.Thigh.Lateral			L.Thigh.Inferior			L.Patella			L.Shank.Superior			L.Shank.Lateral			L.Shank.Inferior			R.Shank.Superior			R.Shank.Lateral			R.Shank.Inferior			R.Heel			R.Midfoot.Superior			R.Midfoot.Lateral			R.Toe			L.Heel			L.Midfoot.Lateral			L.Midfoot.Superior			L.Toe			L.Elbow			L.Wrist			R.Elbow			R.Wrist			
		X1	Y1	Z1	X2	Y2	Z2	X3	Y3	Z3	X4	Y4	Z4	X5	Y5	Z5	X6	Y6	Z6	X7	Y7	Z7	X8	Y8	Z8	X9	Y9	Z9	X10	Y10	Z10	X11	Y11	Z11	X12	Y12	Z12	X13	Y13	Z13	X14	Y14	Z14	X15	Y15	Z15	X16	Y16	Z16	X17	Y17	Z17	X18	Y18	Z18	X19	Y19	Z19	X20	Y20	Z20	X21	Y21	Z21	X22	Y22	Z22	X23	Y23	Z23	X24	Y24	Z24	X25	Y25	Z25	X26	Y26	Z26	X27	Y27	Z27	X28	Y28	Z28	X29	Y29	Z29	X30	Y30	Z30	X31	Y31	Z31	X32	Y32	Z32	X33	Y33	Z33	

124	17.380571428571	908.683054327892	995.879844664069	491.743947960443	1059.516805345346	1418.669523981244	305.060764667941	1180.319876622650	1349.361418541027	453.978049207988	1116.760101775472	1423.789627438818	635.272925415270	1062.791498983298	1479.620315419396	462.624242198259	1133.324463257316	925.879272954219	603.157046781921	1114.790963096202	941.749091311919	326.263130102971	1118.956269127485	712.208585634200	578.616938968363	1002.715241041252	625.494934587677	633.131880502679	1062.287068988998	555.243333422041	557.374669157544	1035.371255607153	470.037459841257	559.210128339156	1188.794844170181	762.371648126002	361.496870026097	1142.250214231884	630.004179087117	283.311725227710	1248.201708516644	576.487076684818	344.451452347538	1276.420900490491	513.899301457315	343.030979702509	1264.866756908625	441.784347399397	334.663631569673	1207.595488565538	305.879482478094	290.681294807354	1303.814835201874	216.017030236953	345.485231048509	989.561334824460	390.409666814642	563.148924170626	895.803233696476	302.757942569716	620.563385346289	920.827529958249	202.130031032499	556.276893404337	764.011838187920	50.286672326589	514.617467391891	934.632198539833	96.829083365613	560.574467292664	842.245061867441	39.400702619468	593.449259274327	1050.584925478452	39.090976793023	595.841874830675	1233.216716152067	39.501440978075	390.946228628146	1305.630216708518	42.526337224920	309.318694943219	1375.928457754074	118.950274487742	327.871912244348	1509.021303481327	89.020831543192	299.462986529184	894.353225703992	1108.640905841879	221.867492025869	826.547456441699	858.582701154272	252.657521719624	1297.415324339959	1139.345324804914	743.570934040046	1540.892724878406	1188.806011611491	685.355587651935	
125	17.391714285714	910.141718041575	994.858017744095	488.964739377446	1060.589622121343	1417.542595400607	302.829415112700	1180.937851109067	1348.769933422155	452.324524297039	1116.334910545150	1423.266983665019	633.256158220422	1063.050239545423	1478.669736989144	460.372068562482	1134.025195801790	924.580790786386	601.686460421829	1117.167779228905	940.854781759874	324.821531303746	1118.970878864761	710.829245654296	577.548458891733	1002.035068510845	624.735846153107	631.691127675868	1061.758720563204	553.792024530686	556.559618865030	1033.944680108066	468.124983447613	558.301765363419	1191.421846573738	761.402451042250	361.384498049411	1144.551277252380	628.783951510176	284.195960289927	1249.800951764007	575.355512472104	346.342012219334	1276.801024744688	511.347538893182	345.696643099241	1264.429675969553	438.743155515857	336.952742783457	1204.769367142279	303.837370958614	293.028837877938	1298.420469729007	212.175316441262	349.003964169409	986.628341100916	389.246424931727	562.401759179872	891.146031923662	303.449313767922	619.870640916971	914.398582059347	202.123248084139	556.077305290067	755.304433647938	52.122014801760	514.879811565622	926.254150942957	97.084006146305	560.771535214590	833.487021481364	40.179523588883	593.627714053026	1041.740243890999	38.762745214629	595.974127272413	1222.762594916097	38.486456895381	393.858808381089	1295.243912163586	40.298211219313	312.166993694167	1368.226383901480	113.595355630227	332.228335992401	1500.511522878724	79.118076409245	303.356805577621	893.391363784032	1109.131968131799	220.501228905929	823.351068342442	859.653608178097	252.113077730135	1297.790191965789	1139.831042826089	742.188819264645	1539.029026611539	1196.123246297564	683.141624809908	
126	17.402857142857	911.603715121438	993.975078568023	486.123551283158	1061.784497997687	1416.529695008317	300.479557969320	1181.650116746165	1348.326119586679	450.584558342164	1115.982328075140	1422.872906096820	631.178551402577	1063.419948036908	1477.884501855543	457.998097440845	1134.832282884630	923.439485222930	600.099282658981	1119.578509588253	940.180611663134	323.332587404501	1119.131201848050	709.592370019949	576.388591850645	1001.544808506984	624.087446690625	630.190508587658	1061.445769816045	552.455282185163	555.702455297313	1032.816720527496	466.225808459981	557.448662605190	1194.171173627338	760.718529112377	361.266299690852	1147.133005153715	628.048012995350	284.747874156119	1251.609812319411	574.596662213864	348.080984310264	1277.322372283543	509.206785650409	348.164882857023	1264.222259182362	436.155296214091	338.897615188114	1202.427493074441	302.334471065554	294.551788904665	1293.265919524527	208.867888300623	351.882274542005	983.862499338178	388.209016767288	561.695540853066	886.654002007745	304.349155737025	619.203358893406	908.104707588153	202.321606483153	555.944574110171	746.637740464300	54.324772407279	515.223899146504	918.021515486161	97.398878399301	561.067319280643	824.764565788448	41.105856774206	593.852210794355	1032.907228650003	38.452107283668	596.090140811446	1212.467002848904	37.856343354208	395.876544492932	1285.153449937545	38.580534389706	314.238607017994	1360.575190533689	108.932894757947	335.893955606931	1492.100641736287	70.256654679690	306.835268032708	893.352765429856	1109.152008086691	218.948847525832	821.529120206232	860.132420703150	251.122212550960	1297.458270369960	1139.760823564552	740.981779543841	1536.483164542377	1202.217254784095	681.125169339940	
127	17.414000000000	913.048224904660	993.290086737249	483.252075955879	1063.097501262722	1415.683321027890	298.040873072473	1182.458011519829	1348.064256864017	448.777204414581	1115.730562183084	1422.654762794619	629.058688916027	1063.902182701651	1477.312134026575	455.531431187407	1135.720216598029	922.507980379161	598.398516623154	1121.976908164825	939.774096886492	321.796039063165	1119.436855321800	708.548783337584	575.123069770477	1001.286610375993	623.575069134078	628.644041946864	1061.397441837853	551.277811512379	554.798328283165	1032.070319124561	464.363675444064	556.698877724346	1196.982465995678	760.385683119028	361.121840061039	1149.966065538652	627.852285585401	284.897441551537	1253.605446317804	574.242817463396	349.515692387846	1278.008527782560	507.560202786846	350.240054388661	1264.251235062946	434.093493645239	340.407903626173	1200.598082666191	301.425040939151	295.203287758468	1288.410718643174	206.191850282981	354.047159006134	981.336613116926	387.314538492393	561.063907457236	882.390712067471	305.489671223894	618.583503257341	902.006932355402	202.757570185090	555.906775684195	738.049508577453	56.965421168871	515.662513093037	909.981170328488	97.776408044483	561.485768965253	816.099400573283	42.210385236532	594.123466369951	1024.085114462978	38.170625084488	596.180621397799	1202.553711337906	37.581149304094	397.063862142582	1275.536050948986	37.375709663888	315.564376259882	1353.030936313008	105.133945660602	338.752679451609	1483.873823326999	62.843470086026	309.738896283671	894.259881037145	1108.716496252228	217.180927183799	821.134986798321	860.011391113264	249.667660141249	1296.392692392517	1139.132555243639	739.942043668760	1533.309949146952	1207.045498344805	679.300654538171	
